<?xml version="1.0" encoding="utf-8"?>
<!-- Generator: Adobe Illustrator 20.0.0, SVG Export Plug-In . SVG Version: 6.00 Build 0)  -->
<svg version="1.1" id="Layer_1" xmlns="http://www.w3.org/2000/svg" xmlns:xlink="http://www.w3.org/1999/xlink" x="0px" y="0px"
	 viewBox="0 0 640 222.2" style="enable-background:new 0 0 640 222.2;" xml:space="preserve">
<style type="text/css">
	.st0{fill:#EF4123;}
</style>
<path class="st0" d="M222.1,23.3c6.6,0,10.7-5.4,9.8-12C231,4.7,225.4,0,218.8,0c-6.6,0-10.4,4.7-9.5,11.3
	C210.3,17.9,215.5,23.3,222.1,23.3L222.1,23.3z M341.7,133.7c-5.4-0.1-10.5-0.3-15.5-0.4c-8.1-0.3-15.8-0.5-23.3-0.5
	c-13.2,0-23.6,0.8-33.8,2.5c-2.9,0.5-4.6,2.9-4.3,6.1c0.3,3.6,3.1,7.5,7,7.5c0.4,0,0.7,0,1.1-0.1c9.1-1.5,18.7-2.3,29.5-2.3
	c14.5,0,41.1,2.2,41.1,2.2c3.6,0,5.6-2.7,5.6-5.9C349.1,138.4,346.2,133.8,341.7,133.7L341.7,133.7z M411.1,40.3
	c-10-8.4-20.7,9-10.5,13.9c11.6,5.6,38.2,40.8,25.5,43.3c-25.5,3.7-42.7,0.7-42.7,0.7c-10.8-0.7-10.7,16.4,1.8,17
	c13.9,0.6,45.1,0.7,52.3-13.3C447.5,82.6,425.9,52.7,411.1,40.3L411.1,40.3z"/>
<path class="st0" d="M339.9,5.8c-1.1-1.5-4.7-5.5-9-5.3c-6,0.3-8.3,4.2-7.4,10.3c0.5,3.3,2.3,5.6,4.5,8.2c0.1,0.1,0.2,0.2,0.2,0.3
	c34.5,55,36.3,79.2,19.2,80.1c-19.3,1-27.9-37.3-40.6-51.2c-3.3-3.6-6.5-3.4-9-2.8c-2.9,0.7-6.4,4.8-5.5,8.8
	c0.1,0.6,0.8,1.9,1.8,3.6c13.6,29.1,10.5,41-2.2,41.6c-19.3,1-27.9-37.3-40.6-51.2c-2.7-3-5.4-3.3-7.6-3c-5.2,0.4-8.9,5.2-8.1,9.3
	c0.3,1.6,1.7,5.1,2,5.9c0,0,0,0,0,0.1c0.7,1.3,18.9,38.6-3.9,38.6c-0.8,0-8.7-0.1-12.5-0.3c-0.6,0-1.1-0.3-1.4-0.7
	c-0.2-0.3-0.4-0.7-0.4-1.2l0,0.1C216.3,46,188.8,40.2,178,40.9c-15.4,0.9-21.6,18.8-19.5,36.8c4.5,37.5,39.4,36.8,39.4,36.8h0
	c1.8,0,3.8,0.2,2,3.2c-6.5,11-17.8,20-25.9,23.5c-1.7,0.7-2.9,2.2-3.3,4.2c-1.4,7.1,6.4,12.8,12.8,9.8c9.9-4.7,24.9-22.2,30.8-36.6
	c0.6-1.8,2-2.8,3.8-2.8l0,0l4,0.1c1.2,0,6.5,0,7.1,0c10.3,0.3,18.2-2.7,22.5-7.7c5.3-6.1,6.2-14,5.9-19.9c-0.1-1.1,1.4-1.5,2-0.5
	c1.8,3.3,3.5,6.3,5.1,8.9c5.4,8.7,11.8,19.3,27.6,19.3c9.1,0,21.6-8.8,22.6-25.7c0-0.8,0.1-1.5,0.1-2.3c0-1.1,1.4-1.4,1.9-0.6
	c3,4.8,4.9,8.6,5.2,9.3c4.9,9.2,9.8,19.3,25.6,19.3c9.1,0,21.6-8.8,22.6-25.7C371.9,61.6,343.2,9.4,339.9,5.8L339.9,5.8z
	 M206.4,95.1c0,0.1,0,0.1,0,0.2c-0.2,0.8-0.8,1.5-1.6,1.6c-3.1,0.5-28.1,0.6-32.4-19c-2.7-12.3,2.1-20.5,6.9-20.8
	C202.3,55.7,206.7,91.3,206.4,95.1L206.4,95.1z M1.4,104.1c-6,11.2,8.8,17.3,12.5,7.1c10.9-29.8,31.4-32.6,52.3-35.7
	c7.3-1.1,8.1-14.1-1.9-12.5C43.5,66.4,18.9,71.6,1.4,104.1L1.4,104.1z M640,86.8c0-4.2-3.3-7.4-7.3-7.3s-7.3,3.7-7.3,7.9
	c0,4.2,3.3,7.4,7.3,7.3S640,91,640,86.8z"/>
<path class="st0" d="M608.7,91.1C91.1,318.6,68.6,137.8,60.2,114.5c-7.1-19.8-25.1-5.4-20.2,7.9c12.1,33.3,45.6,104.9,166.3,99.5
	c151.6-6.8,355.5-97.9,407-118.6c1.7-0.7,8.5-3.7,6.3-9.8C617.5,88,608.7,91.1,608.7,91.1L608.7,91.1z"/>
</svg>
